<svg width="100%" height="100%" id="svg" viewBox="0 0 1440 590" xmlns="http://www.w3.org/2000/svg" class="transition duration-300 ease-in-out delay-150"><defs><linearGradient id="gradient" x1="0%" y1="50%" x2="100%" y2="50%"><stop offset="5%" stop-color="#F78DA7"></stop><stop offset="95%" stop-color="#8ED1FC"></stop></linearGradient></defs><path d="M 0,600 C 0,600 0,200 0,200 C 81.82775119617222,174.13397129186603 163.65550239234443,148.26794258373207 255,165 C 346.34449760765557,181.73205741626793 447.2057416267943,241.06220095693777 558,258 C 668.7942583732057,274.9377990430622 789.5215311004783,249.48325358851673 893,247 C 996.4784688995217,244.51674641148327 1082.708133971292,265.00478468899524 1171,261 C 1259.291866028708,256.99521531100476 1349.645933014354,228.49760765550238 1440,200 C 1440,200 1440,600 1440,600 Z" stroke="none" stroke-width="0" fill="url(#gradient)" fill-opacity="0.53" class="transition-all duration-300 ease-in-out delay-150 path-0" transform="rotate(-180 720 300)"></path><defs><linearGradient id="gradient" x1="0%" y1="50%" x2="100%" y2="50%"><stop offset="5%" stop-color="#F78DA7"></stop><stop offset="95%" stop-color="#8ED1FC"></stop></linearGradient></defs><path d="M 0,600 C 0,600 0,400 0,400 C 87.34928229665073,420 174.69856459330146,440 277,442 C 379.30143540669854,444 496.555023923445,428 594,403 C 691.444976076555,378 769.0813397129186,344 852,361 C 934.9186602870814,378 1023.1196172248804,445.99999999999994 1122,461 C 1220.8803827751196,476.00000000000006 1330.44019138756,438 1440,400 C 1440,400 1440,600 1440,600 Z" stroke="none" stroke-width="0" fill="url(#gradient)" fill-opacity="1" class="transition-all duration-300 ease-in-out delay-150 path-1" transform="rotate(-180 720 300)"></path></svg>