<?xml version="1.0" standalone="no"?>
<!DOCTYPE svg PUBLIC "-//W3C//DTD SVG 20010904//EN"
 "http://www.w3.org/TR/2001/REC-SVG-20010904/DTD/svg10.dtd">
<svg version="1.0" xmlns="http://www.w3.org/2000/svg"
 width="256.000000pt" height="256.000000pt" viewBox="0 0 256.000000 256.000000"
 preserveAspectRatio="xMidYMid meet">
<metadata>
Created by potrace 1.14, written by Peter Selinger 2001-2017
</metadata>
<g transform="translate(0.000000,256.000000) scale(0.100000,-0.100000)"
fill="#000000" stroke="none">
<path d="M886 2543 c-151 -46 -261 -179 -278 -338 -3 -28 -8 -31 -67 -48 -174
-48 -275 -213 -237 -384 7 -30 5 -33 -21 -39 -96 -24 -185 -96 -222 -180 -80
-179 14 -387 201 -445 18 -6 102 -12 185 -13 197 -3 190 3 189 -151 l-1 -115
-100 -80 c-142 -115 -145 -118 -145 -138 0 -11 22 -57 49 -103 95 -161 105
-174 128 -171 12 2 83 27 159 57 l138 53 41 -28 c30 -20 115 -68 152 -84 1 -1
7 -37 13 -81 31 -207 37 -237 51 -246 8 -5 83 -9 167 -9 180 0 163 -15 187
155 25 177 25 177 75 204 25 13 68 38 96 56 l50 33 151 -58 c105 -40 155 -54
166 -48 9 5 33 39 54 76 21 37 46 81 55 97 45 76 52 96 42 113 -6 9 -62 59
-125 111 l-114 93 0 115 c-1 150 -8 146 201 148 151 2 155 3 218 34 107 53
172 145 183 263 13 143 -71 277 -206 329 -35 13 -45 22 -43 36 2 10 4 52 5 93
1 96 -31 168 -104 234 -68 61 -135 85 -224 81 -38 -2 -80 -6 -92 -10 -18 -6
-25 -1 -41 32 -29 55 -84 108 -144 140 -47 24 -63 27 -148 27 -70 0 -103 -5
-125 -17 -16 -9 -33 -17 -37 -17 -3 0 -18 21 -33 46 -38 65 -100 120 -174 156
-77 37 -194 46 -275 21z"/>
</g>
</svg>
